<svg xmlns="http://www.w3.org/2000/svg" width="32" height="32" fill="#000000" viewBox="0 0 256 256" fill-rule="evenodd"><path d="M42,16 102,16 109,19 117,27 120,34 120,198 117,205 109,213 102,216 42,216 35,213 27,205 24,198 24,34 27,27 35,19ZM47,32 43,33 40,38 40,194 41,197 46,200 98,200 101,199 104,194 104,38 103,35 98,32ZM154,80 214,80 221,83 231,95 232,198 229,205 217,215 154,216 147,213 137,201 136,98 139,91 147,83ZM159,96 155,97 152,102 153,197 158,200 213,199 216,194 215,99 210,96ZM13,232 243,232 248,237 248,243 243,248 13,248 8,243 8,237Z"></path></svg>
